<svg width="26" height="24" viewBox="0 0 26 24" fill="none" xmlns="http://www.w3.org/2000/svg">
<path d="M22.0275 16V8C22.0271 7.64927 21.9331 7.30481 21.7547 7.00116C21.5764 6.69752 21.3201 6.44536 21.0115 6.27L13.8998 2.27C13.5909 2.09446 13.2405 2.00205 12.8838 2.00205C12.5271 2.00205 12.1767 2.09446 11.8678 2.27L4.75608 6.27C4.44749 6.44536 4.19118 6.69752 4.01286 7.00116C3.83454 7.30481 3.74048 7.64927 3.74011 8V16C3.74048 16.3507 3.83454 16.6952 4.01286 16.9988C4.19118 17.3025 4.44749 17.5546 4.75608 17.73L11.8678 21.73C12.1767 21.9055 12.5271 21.998 12.8838 21.998C13.2405 21.998 13.5909 21.9055 13.8998 21.73L21.0115 17.73C21.3201 17.5546 21.5764 17.3025 21.7547 16.9988C21.9331 16.6952 22.0271 16.3507 22.0275 16Z" stroke="#338573" stroke-width="2" stroke-linecap="round" stroke-linejoin="round"/>
<path d="M8.31201 4.21L12.8839 6.81L17.4557 4.21" stroke="#338573" stroke-width="2" stroke-linecap="round" stroke-linejoin="round"/>
<path d="M8.31196 19.79V14.6L3.74011 12" stroke="#338573" stroke-width="2" stroke-linecap="round" stroke-linejoin="round"/>
<path d="M22.0275 12L17.4557 14.6V19.79" stroke="#338573" stroke-width="2" stroke-linecap="round" stroke-linejoin="round"/>
<path d="M4.01453 6.96L12.8839 12.01L21.7533 6.96" stroke="#338573" stroke-width="2" stroke-linecap="round" stroke-linejoin="round"/>
<path d="M12.8838 22.08V12" stroke="#338573" stroke-width="2" stroke-linecap="round" stroke-linejoin="round"/>
</svg>
